<svg xmlns="http://www.w3.org/2000/svg" version="1.1" xmlns:xlink="http://www.w3.org/1999/xlink" xmlns:svgjs="http://svgjs.dev/svgjs" width="1000" height="1000"><g clip-path="url(#SvgjsClipPath1018)"><rect width="1000" height="1000" fill="#005ca9"></rect><g transform="matrix(16.666666666666668,0,0,16.666666666666668,150,283.3333333333333)"><svg xmlns="http://www.w3.org/2000/svg" version="1.1" xmlns:xlink="http://www.w3.org/1999/xlink" xmlns:svgjs="http://svgjs.dev/svgjs" width="42" height="26"><svg width="42" height="26" viewBox="0 0 42 26" fill="none" xmlns="http://www.w3.org/2000/svg">
<path d="M15.5215 25.0484H0L1.616 22.1621H10.7444C10.9494 22.3435 11.1622 22.517 11.383 22.6826C12.6127 23.6289 14.008 24.4806 15.5136 25.0484H15.5215Z" fill="white"></path>
<path d="M18.7141 21.7052C16.767 20.2936 15.4269 18.7164 14.4337 17.2023C13.3143 15.5068 10.8785 11.3745 12.6443 7.05291C13.3774 6.07504 14.347 5.25489 15.0643 4.72653C16.2546 3.85118 17.106 3.44899 18.5486 3.05469C17.2715 3.74866 15.3954 5.80692 15.5925 9.76571C15.6871 11.6268 16.57 13.8034 17.4528 15.1519C19.7074 18.5823 22.5373 20.0491 25.454 20.8062C26.8178 21.161 28.9225 21.3345 31.6421 21.4765C33.8415 21.5948 38.3426 21.6184 39.1309 21.6184H39.9665L41.8978 25.3012C41.8978 25.3012 35.355 25.3249 32.3122 25.1672C27.3853 24.9069 22.7975 24.6782 18.722 21.7052H18.7141Z" fill="white"></path>
<path d="M22.4427 24.6701C21.3785 24.9303 20.3301 25.0565 19.3605 25.0486C16.5936 25.0486 13.9922 23.7474 11.8402 22.0913C9.26246 20.1041 7.37055 17.3439 6.89758 14.3315C6.82663 13.9845 6.7951 13.6296 6.7478 13.1249C6.55861 11.0666 6.85028 8.47214 8.30074 5.99592C9.54624 3.85092 11.4145 1.9977 14.481 0.712275C15.758 0.176024 18.5091 -0.423316 21.6938 0.420491C25.0362 1.34316 27.9608 3.41719 29.8448 6.14576C29.8448 6.14576 26.9596 2.392 22.0249 1.96616C21.8042 1.95038 21.5756 1.93461 21.3549 1.93461C18.919 1.8873 16.5778 2.72322 14.6386 4.12693C13.401 5.01017 12.3053 6.1221 11.4618 7.39964C11.2805 7.68354 9.45953 10.3332 9.41223 14.1738C9.37282 17.5174 10.8627 19.9227 11.4303 20.7349C11.446 20.7586 12.8334 21.697 14.946 22.0992C16.1679 22.3279 17.5159 22.2806 18.1308 22.1939C18.1781 22.2333 18.2332 22.2727 18.2884 22.3043C19.731 23.3531 21.2287 24.0786 22.7738 24.5833L22.4506 24.678L22.4427 24.6701Z" fill="white"></path>
<path d="M31.847 12.6364C32.0756 15.7041 30.1916 19.0793 29.0959 20.5698C27.6297 20.4515 26.4709 20.3017 25.6353 20.0887C25.2096 19.9783 24.7918 19.8522 24.374 19.7102C25.6589 18.6219 27.3853 16.5558 28.2288 13.7247C29.4427 9.62397 28.0396 5.85444 26.329 4.08008C30.4912 6.75345 31.6973 10.1444 31.847 12.6364Z" fill="white"></path>
</svg></svg></g></g><defs><clipPath id="SvgjsClipPath1018"><rect width="1000" height="1000" x="0" y="0" rx="350" ry="350"></rect></clipPath></defs></svg>